# xmcd
#
# Track frame offsets:
#       150
#       10634
#       21586
#       31526
#       41594
#       52556
#       67494
#       77339
#       87961
#       99945
#       107979
#       119321
#       130581
#       142201
#       150501
#
# Disc length: 2173 seconds
#
# Revision: 4
# Processed by: cddbd v1.5.2PL0 Copyright (c) Steve Scherf et al.
# Submitted via: FreeDbEdit v0.1
#
DISCID=b4087b0f
DTITLE=Tom Jones - The Best of Tom Jones [CD3]
DYEAR=1900
DGENRE=Blues
TTITLE0=Nights on Broadway
TTITLE1=Try a Little Tenderness
TTITLE2=Proud Mary
TTITLE3=On Broadway
TTITLE4=Somewhere Over the Rainbow
TTITLE5=Sexy Eyes
TTITLE6=I Can See Clearly Now
TTITLE7=Fever
TTITLE8=We Don't Talk Anymore
TTITLE9=Lay Down Sally
TTITLE10=Send in the Clowns
TTITLE11=Hot Legs
TTITLE12=We Can Work It Out
TTITLE13=Memphis
TTITLE14=Passion
EXTD=
EXTT0=
EXTT1=
EXTT2=
EXTT3=
EXTT4=
EXTT5=
EXTT6=
EXTT7=
EXTT8=
EXTT9=
EXTT10=
EXTT11=
EXTT12=
EXTT13=
EXTT14=
PLAYORDER=
